<svg xmlns="http://www.w3.org/2000/svg" width="2048" height="2048" viewBox="0 0 2048 2048" version="1.1"><path d="M 461.503 684.736 C 459.063 706.546, 448.104 728.867, 429.412 750.100 C 416.196 765.112, 397.588 780.546, 362 806.013 C 315.646 839.184, 294.897 857.877, 275.436 884 C 250.563 917.388, 238.414 962.175, 243.020 1003.500 C 247.784 1046.245, 265.382 1086.273, 295.998 1124 C 306.094 1136.441, 333.438 1164.128, 344.379 1172.987 C 350.661 1178.075, 351.107 1178.694, 350.501 1181.487 C 345.187 1205.983, 345.958 1226.140, 353.016 1247.206 C 356.254 1256.871, 365.819 1277.514, 366.667 1276.666 C 366.965 1276.369, 367.622 1272.385, 368.128 1267.813 C 369.407 1256.265, 373.283 1242.324, 378.034 1232.185 C 383.038 1221.507, 393.462 1205.739, 400.495 1198.209 L 405.828 1192.500 408.901 1195.425 C 418.280 1204.351, 427.779 1221.617, 432.226 1237.825 C 435.355 1249.229, 435.304 1273.080, 432.125 1285 C 429.332 1295.473, 422.660 1309.818, 416.949 1317.630 C 407.016 1331.217, 390.005 1344.947, 371.700 1354.151 C 367.351 1356.337, 363.952 1358.281, 364.147 1358.469 C 365.082 1359.378, 383.355 1356.702, 394.645 1354.004 C 440.059 1343.151, 478.847 1313.688, 496.339 1276.759 C 513.441 1240.652, 509.530 1193.311, 486.252 1154.644 C 483.540 1150.139, 483.028 1148.601, 484.032 1147.980 C 484.751 1147.536, 496.625 1143.241, 510.419 1138.436 C 544.432 1126.588, 556.084 1121.956, 572.337 1113.823 C 625.835 1087.054, 651.658 1053.261, 655.496 1005 C 656.542 991.851, 653.661 965.831, 649.866 954.147 L 648.777 950.795 644.139 955.257 C 628.132 970.656, 604.477 978.633, 555.854 985.032 C 505.416 991.669, 477.954 999.614, 452.732 1014.865 C 437.631 1023.997, 420.493 1039.811, 412.239 1052.231 L 409.759 1055.963 408.012 1053.731 C 402.758 1047.018, 395.002 1033.672, 393.059 1028 C 391.520 1023.509, 390.667 1018.100, 390.298 1010.500 C 389.385 991.689, 394.093 973.773, 403.896 958.757 C 409.573 950.060, 415.169 945.026, 423.982 940.690 C 430.157 937.652, 431.012 937.502, 441.982 937.543 C 450.473 937.574, 456.916 938.293, 466.500 940.280 C 473.650 941.762, 480.896 943.071, 482.602 943.189 C 492.182 943.850, 513.209 915.500, 524.391 886.844 C 543.726 837.296, 532.763 783.913, 495.467 746 L 487.105 737.500 485.064 727.400 C 482.848 716.431, 479.742 707.398, 474.855 697.705 C 471.557 691.164, 464.655 680.523, 463.078 679.549 C 462.566 679.232, 461.857 681.567, 461.503 684.736 M 467.666 704.925 C 466.069 727.425, 453.015 751.696, 430 774.956 C 416.749 788.348, 404.442 798.409, 375.500 819.510 C 342.126 843.842, 330.324 853.534, 313.494 870.433 C 296.822 887.172, 287.858 898.961, 279.607 915 C 263.078 947.130, 258.860 977.431, 265.478 1016.500 C 267.027 1025.644, 274.805 1051.528, 275.727 1050.607 C 276.004 1050.329, 275.760 1048.750, 275.184 1047.097 C 274.274 1044.489, 274.391 1044.011, 276.068 1043.478 C 277.131 1043.141, 278.832 1043.129, 279.848 1043.452 C 280.865 1043.775, 282.946 1043.391, 284.473 1042.598 C 286 1041.806, 287.980 1041.432, 288.874 1041.766 C 290.337 1042.314, 290.350 1042.180, 289 1040.437 C 287.631 1038.670, 287.645 1038.613, 289.153 1039.792 C 290.454 1040.809, 290.893 1040.820, 291.219 1039.842 C 291.488 1039.035, 291.868 1039.213, 292.305 1040.352 C 292.679 1041.328, 292.570 1041.852, 292.058 1041.536 C 291.552 1041.223, 290.856 1041.425, 290.510 1041.984 C 290.165 1042.543, 290.696 1043.007, 291.691 1043.015 C 293.114 1043.027, 293.205 1043.218, 292.117 1043.907 C 291.100 1044.551, 291.565 1044.965, 293.876 1045.473 C 295.604 1045.852, 296.818 1046.485, 296.575 1046.879 C 296.331 1047.273, 296.584 1048.249, 297.137 1049.048 C 297.859 1050.092, 297.986 1049.517, 297.587 1047 C 295.922 1036.510, 295.840 1012.010, 297.429 1000 C 300.977 973.182, 307.580 954.289, 321.801 930.263 C 339.437 900.469, 355.089 883.808, 400 847.022 C 439.234 814.885, 451.193 802.058, 462.377 780.116 C 472.708 759.848, 476.341 742.102, 474.225 722.242 C 473.221 712.815, 470.010 697.676, 468.747 696.413 C 468.502 696.169, 468.016 699.999, 467.666 704.925 M 486.462 759.750 C 483.374 778.171, 475.233 795.302, 460.882 813.580 C 457.176 818.299, 444.992 831.462, 433.807 842.830 C 401.948 875.211, 391.567 888.063, 382.783 906 C 369.557 933.008, 367.371 963.895, 376.612 993.171 C 379.330 1001.782, 387.976 1022.358, 388.610 1021.724 C 388.807 1021.526, 388.258 1018.020, 387.390 1013.932 C 385.241 1003.813, 385.982 983.562, 388.906 972.500 C 393.406 955.476, 403.268 939.969, 414.151 932.805 C 427.576 923.968, 438.542 922.778, 464.292 927.365 C 484.217 930.914, 484.131 930.921, 488.597 925.577 C 502.467 908.985, 513.930 884.345, 518.692 860.890 C 520.780 850.605, 521.057 823.455, 519.164 814.500 C 515.992 799.486, 508.710 782.038, 501.217 771.500 C 496.612 765.022, 488.834 756, 487.855 756 C 487.434 756, 486.808 757.688, 486.462 759.750 M 1765.375 912.125 C 1765.719 913.844, 1766 920.819, 1766 927.625 L 1766 940 1781.500 940 L 1797 940 1797 924.500 L 1797 909 1780.875 909 L 1764.750 909 1765.375 912.125 M 823.387 963.945 C 806.820 966.546, 793.083 976.203, 787.744 989 C 786.292 992.480, 786.280 992.444, 785.594 982.500 C 785.215 977, 784.813 971.375, 784.702 970 L 784.500 967.500 769.750 967.223 L 755 966.947 755 1039.499 L 755 1112.051 770.546 1111.775 L 786.093 1111.500 786.044 1072.500 C 785.986 1026.039, 786.644 1018.310, 791.502 1008.374 C 795.243 1000.724, 798.771 997.342, 806.767 993.741 C 813.594 990.666, 827.460 990.732, 834.599 993.873 C 840.920 996.654, 847.180 1002.923, 850.202 1009.500 C 852.485 1014.468, 852.502 1014.814, 852.794 1063.250 L 853.089 1112 868.544 1112 L 884 1112 884.035 1069.750 C 884.073 1023.253, 884.721 1015.958, 889.606 1006.983 C 892.745 1001.215, 897.540 997.006, 904.670 993.759 C 911.694 990.560, 925.388 990.642, 932.779 993.926 C 939.203 996.780, 946.128 1004.157, 948.577 1010.756 C 950.348 1015.529, 950.477 1019.209, 951.889 1105.250 L 952 1112 967.064 1112 L 982.127 1112 981.738 1059.250 C 981.309 1001.141, 981.298 1001.039, 974.761 988.726 C 961.729 964.180, 928.052 955.781, 900.708 970.257 C 894.086 973.763, 885.283 982.745, 882.339 989.001 L 880.336 993.257 877.285 987.878 C 870.750 976.358, 861.967 969.383, 849.321 965.670 C 842.771 963.747, 830.041 962.901, 823.387 963.945 M 1649.472 963.987 C 1622.503 967.758, 1606.878 979, 1600.486 999.234 C 1599.119 1003.562, 1598 1007.305, 1598 1007.552 C 1598 1007.798, 1604.638 1007.982, 1612.750 1007.959 L 1627.500 1007.918 1629.876 1002.857 C 1634.345 993.336, 1645.693 988.493, 1661.887 989.195 C 1680.856 990.018, 1690.226 997.835, 1690.418 1013 L 1690.500 1019.500 1685.500 1021.153 C 1682.750 1022.063, 1673.366 1023.543, 1664.646 1024.444 C 1622.425 1028.804, 1604.276 1036.537, 1595.787 1053.782 C 1592.624 1060.207, 1592.500 1060.910, 1592.500 1072.479 C 1592.500 1083.437, 1592.738 1085.007, 1595.188 1090.236 C 1602.595 1106.039, 1620.348 1115.291, 1643 1115.153 C 1654.693 1115.081, 1662.148 1113.483, 1671.847 1108.969 C 1678.962 1105.657, 1688.706 1096.502, 1691.056 1090.921 L 1692.497 1087.500 1693.161 1092.500 C 1693.526 1095.250, 1693.864 1100.775, 1693.912 1104.777 L 1694 1112.055 1708.250 1111.777 L 1722.500 1111.500 1722.113 1059 C 1721.814 1018.458, 1721.409 1005.247, 1720.333 1001 C 1715.673 982.608, 1702.789 970.942, 1681.716 966.032 C 1671.832 963.730, 1657.718 962.835, 1649.472 963.987 M 1231.631 966.078 C 1210.827 971.189, 1199.312 981.758, 1195.955 998.824 C 1193.510 1011.249, 1196.476 1023.077, 1204.135 1031.458 C 1212.795 1040.932, 1221.949 1044.816, 1249.038 1050.508 C 1270.478 1055.013, 1275.836 1056.969, 1280.315 1061.927 C 1286.016 1068.237, 1285.974 1076.944, 1280.212 1083.321 C 1275.251 1088.813, 1260.547 1092.702, 1249.500 1091.446 C 1236.524 1089.971, 1227.402 1084.574, 1222.294 1075.350 L 1219.086 1069.556 1204.928 1069.432 L 1190.770 1069.309 1191.397 1073.904 C 1192.409 1081.328, 1198.252 1092.382, 1204.428 1098.559 C 1211.119 1105.250, 1223.034 1111.209, 1234.208 1113.452 C 1244.219 1115.462, 1263.803 1115.460, 1273.792 1113.447 C 1300.376 1108.089, 1315.948 1090.898, 1314.825 1068.146 C 1314.130 1054.066, 1306.675 1043.403, 1292.702 1036.507 C 1286.032 1033.216, 1270.409 1028.848, 1249.672 1024.478 C 1239.496 1022.334, 1230.230 1017.557, 1227.638 1013.120 C 1222.918 1005.038, 1226.316 995.957, 1235.802 991.298 C 1241.005 988.743, 1242.455 988.502, 1252.500 988.521 C 1261.852 988.539, 1264.283 988.893, 1268.727 990.884 C 1274.452 993.450, 1281.563 1000.411, 1282.575 1004.441 L 1283.217 1007 1298.108 1007 C 1306.299 1007, 1313 1006.857, 1313 1006.682 C 1313 1006.506, 1312.282 1003.919, 1311.405 1000.932 C 1306 982.532, 1293.098 970.870, 1272.747 965.991 C 1261.602 963.319, 1242.698 963.359, 1231.631 966.078 M 1393.720 966.004 C 1381.557 969.076, 1371.895 974.311, 1363.142 982.571 C 1346.880 997.917, 1340.089 1017.237, 1341.292 1044.727 C 1341.936 1059.437, 1343.525 1066.128, 1349.197 1078 C 1357.215 1094.783, 1374.068 1107.826, 1394.500 1113.061 C 1405.654 1115.919, 1424.363 1115.917, 1435.500 1113.056 C 1454.646 1108.139, 1468.757 1097.229, 1476.827 1081.105 C 1479.122 1076.520, 1481 1072.146, 1481 1071.384 C 1481 1070.267, 1478.130 1070, 1466.145 1070 L 1451.290 1070 1448.395 1074.583 C 1441.890 1084.880, 1427.920 1090.634, 1411.509 1089.776 C 1403.055 1089.334, 1401.080 1088.849, 1394.525 1085.610 C 1386.018 1081.405, 1381.298 1076.519, 1377.033 1067.500 C 1374.090 1061.277, 1371.351 1050.316, 1372.461 1049.206 C 1372.810 1048.856, 1383.987 1048.657, 1397.298 1048.763 C 1410.609 1048.869, 1435.625 1048.688, 1452.890 1048.360 L 1484.279 1047.763 1483.587 1035.301 C 1481.974 1006.283, 1472.852 987.403, 1454.518 975.140 C 1442.724 967.252, 1433.792 964.752, 1416 964.359 C 1404.131 964.097, 1400.088 964.396, 1393.720 966.004 M 637 971.115 C 633.425 974.455, 630.388 977.146, 630.250 977.094 C 630.112 977.042, 630 977.225, 630 977.500 C 630 977.775, 630.337 978.032, 630.750 978.071 C 631.163 978.110, 632.212 978.786, 633.081 979.573 C 633.951 980.360, 634.963 980.703, 635.331 980.336 C 635.699 979.968, 636 980.417, 636 981.333 C 636 982.250, 636.436 983, 636.969 983 C 637.501 983, 637.650 982.251, 637.299 981.336 C 636.902 980.302, 637.059 979.918, 637.713 980.323 C 638.337 980.709, 639.603 978.638, 640.822 975.237 C 643.223 968.540, 644.263 964.991, 643.817 965.021 C 643.643 965.033, 640.575 967.775, 637 971.115 M 1022.265 1018.250 C 1022.722 1075.376, 1022.800 1076.118, 1029.719 1089.285 C 1036.119 1101.463, 1046.893 1109.870, 1060.644 1113.416 C 1068.382 1115.411, 1085.604 1115.481, 1092.869 1113.547 C 1104.927 1110.338, 1115.761 1102.731, 1122.476 1092.759 L 1125.771 1087.867 1126.496 1099.933 L 1127.221 1112 1141.611 1112 L 1156 1112 1156 1039.500 L 1156 967 1140.500 967 L 1125 967 1124.992 1008.750 C 1124.988 1032.926, 1124.545 1053.236, 1123.940 1057 C 1121.175 1074.200, 1111.283 1084.876, 1095.176 1088.045 C 1078.503 1091.325, 1062.996 1084.346, 1057.064 1070.892 C 1053.637 1063.121, 1053.040 1054.095, 1053.020 1009.750 L 1053 967 1037.428 967 L 1021.856 967 1022.265 1018.250 M 1766 1039.526 L 1766 1112.052 1781.250 1111.776 L 1796.500 1111.500 1796.757 1039.250 L 1797.013 967 1781.507 967 L 1766 967 1766 1039.526 M 1402.746 990.086 C 1388.746 993.385, 1377.736 1005.152, 1373.627 1021.206 L 1372.271 1026.500 1412.291 1026.761 C 1434.302 1026.905, 1452.553 1026.780, 1452.850 1026.484 C 1453.986 1025.348, 1450.694 1013.239, 1447.737 1007.674 C 1444.618 1001.805, 1439.043 996.161, 1433.500 993.259 C 1426.037 989.352, 1412.004 987.904, 1402.746 990.086 M 644.685 1000.155 C 641.854 1007.567, 633.140 1019.860, 624.817 1028.183 C 614.736 1038.264, 603.998 1046.189, 588.716 1054.826 C 566.580 1067.338, 554.766 1072.259, 505.500 1089.493 C 452.718 1107.957, 435.593 1115.491, 414.256 1129.633 C 379.568 1152.626, 360.537 1183.377, 358.332 1220 C 357.718 1230.200, 359.073 1244.214, 361.766 1255.500 L 363.436 1262.500 364.089 1254 C 364.994 1242.218, 366.612 1234.268, 370.160 1224.157 C 380.156 1195.671, 396.520 1175.172, 423.904 1156.833 C 442.894 1144.116, 457.284 1137.788, 505.823 1120.812 C 539.053 1109.190, 560.435 1100.590, 573 1093.792 C 613.790 1071.723, 635.937 1044.820, 645.132 1006.170 C 647.407 996.603, 647.185 993.609, 644.685 1000.155 M 488.500 1028.586 C 471.384 1031.596, 452.589 1039.440, 436.288 1050.376 C 428.359 1055.696, 418 1064.668, 418 1066.215 C 418 1066.796, 421.488 1071.069, 425.750 1075.710 C 430.012 1080.352, 435.340 1086.225, 437.590 1088.762 L 441.680 1093.375 450.296 1089.673 C 460.853 1085.138, 474.381 1080.230, 505 1069.827 C 528.291 1061.913, 549.127 1054.008, 562.370 1048.061 L 569.239 1044.976 566.671 1042.956 C 562.834 1039.938, 549.258 1033.402, 543 1031.561 C 527.729 1027.068, 504.382 1025.794, 488.500 1028.586 M 1686.843 1041.563 C 1684.831 1042.260, 1675.831 1043.800, 1666.843 1044.985 C 1642.939 1048.135, 1637.201 1049.599, 1630.727 1054.199 C 1623.959 1059.007, 1621.616 1071.986, 1626.082 1079.932 C 1630.384 1087.586, 1637.890 1091, 1650.416 1091 C 1670.372 1091, 1684.433 1082.261, 1689.077 1066.971 C 1690.628 1061.865, 1691.010 1058.152, 1690.787 1050.345 L 1690.500 1040.294 1686.843 1041.563 M 1532.500 1076.222 C 1523.826 1079.297, 1519.534 1086.340, 1520.177 1096.444 C 1520.490 1101.353, 1521.219 1103.709, 1523.402 1106.859 C 1530.712 1117.406, 1547.772 1117.720, 1555.605 1107.452 C 1558.037 1104.263, 1558.534 1102.565, 1558.847 1096.365 C 1559.173 1089.911, 1558.910 1088.521, 1556.623 1084.619 C 1552.112 1076.923, 1541.219 1073.130, 1532.500 1076.222" stroke="none" fill="#5d2b7d" fill-rule="evenodd"/><path d="M 0 1024 L 0 2048.001 1024.250 2047.750 L 2048.500 2047.500 2048.750 1023.750 L 2049.001 0 1024.500 0 L 0 0 0 1024 M 0.498 1024.500 C 0.498 1587.700, 0.611 1817.950, 0.750 1536.167 C 0.889 1254.384, 0.889 793.584, 0.750 512.167 C 0.611 230.750, 0.498 461.300, 0.498 1024.500 M 461.503 684.736 C 459.063 706.546, 448.104 728.867, 429.412 750.100 C 416.196 765.112, 397.588 780.546, 362 806.013 C 315.646 839.184, 294.897 857.877, 275.436 884 C 250.563 917.388, 238.414 962.175, 243.020 1003.500 C 247.784 1046.245, 265.382 1086.273, 295.998 1124 C 306.094 1136.441, 333.438 1164.128, 344.379 1172.987 C 350.661 1178.075, 351.107 1178.694, 350.501 1181.487 C 345.187 1205.983, 345.958 1226.140, 353.016 1247.206 C 356.254 1256.871, 365.819 1277.514, 366.667 1276.666 C 366.965 1276.369, 367.622 1272.385, 368.128 1267.813 C 369.407 1256.265, 373.283 1242.324, 378.034 1232.185 C 383.038 1221.507, 393.462 1205.739, 400.495 1198.209 L 405.828 1192.500 408.901 1195.425 C 418.280 1204.351, 427.779 1221.617, 432.226 1237.825 C 435.355 1249.229, 435.304 1273.080, 432.125 1285 C 429.332 1295.473, 422.660 1309.818, 416.949 1317.630 C 407.016 1331.217, 390.005 1344.947, 371.700 1354.151 C 367.351 1356.337, 363.952 1358.281, 364.147 1358.469 C 365.082 1359.378, 383.355 1356.702, 394.645 1354.004 C 440.059 1343.151, 478.847 1313.688, 496.339 1276.759 C 513.441 1240.652, 509.530 1193.311, 486.252 1154.644 C 483.540 1150.139, 483.028 1148.601, 484.032 1147.980 C 484.751 1147.536, 496.625 1143.241, 510.419 1138.436 C 544.432 1126.588, 556.084 1121.956, 572.337 1113.823 C 625.835 1087.054, 651.658 1053.261, 655.496 1005 C 656.542 991.851, 653.661 965.831, 649.866 954.147 L 648.777 950.795 644.139 955.257 C 628.132 970.656, 604.477 978.633, 555.854 985.032 C 505.416 991.669, 477.954 999.614, 452.732 1014.865 C 437.631 1023.997, 420.493 1039.811, 412.239 1052.231 L 409.759 1055.963 408.012 1053.731 C 402.758 1047.018, 395.002 1033.672, 393.059 1028 C 391.520 1023.509, 390.667 1018.100, 390.298 1010.500 C 389.385 991.689, 394.093 973.773, 403.896 958.757 C 409.573 950.060, 415.169 945.026, 423.982 940.690 C 430.157 937.652, 431.012 937.502, 441.982 937.543 C 450.473 937.574, 456.916 938.293, 466.500 940.280 C 473.650 941.762, 480.896 943.071, 482.602 943.189 C 492.182 943.850, 513.209 915.500, 524.391 886.844 C 543.726 837.296, 532.763 783.913, 495.467 746 L 487.105 737.500 485.064 727.400 C 482.848 716.431, 479.742 707.398, 474.855 697.705 C 471.557 691.164, 464.655 680.523, 463.078 679.549 C 462.566 679.232, 461.857 681.567, 461.503 684.736 M 467.666 704.925 C 466.069 727.425, 453.015 751.696, 430 774.956 C 416.749 788.348, 404.442 798.409, 375.500 819.510 C 342.126 843.842, 330.324 853.534, 313.494 870.433 C 296.822 887.172, 287.858 898.961, 279.607 915 C 263.078 947.130, 258.860 977.431, 265.478 1016.500 C 267.027 1025.644, 274.805 1051.528, 275.727 1050.607 C 276.004 1050.329, 275.760 1048.750, 275.184 1047.097 C 274.274 1044.489, 274.391 1044.011, 276.068 1043.478 C 277.131 1043.141, 278.832 1043.129, 279.848 1043.452 C 280.865 1043.775, 282.946 1043.391, 284.473 1042.598 C 286 1041.806, 287.980 1041.432, 288.874 1041.766 C 290.337 1042.314, 290.350 1042.180, 289 1040.437 C 287.631 1038.670, 287.645 1038.613, 289.153 1039.792 C 290.454 1040.809, 290.893 1040.820, 291.219 1039.842 C 291.488 1039.035, 291.868 1039.213, 292.305 1040.352 C 292.679 1041.328, 292.570 1041.852, 292.058 1041.536 C 291.552 1041.223, 290.856 1041.425, 290.510 1041.984 C 290.165 1042.543, 290.696 1043.007, 291.691 1043.015 C 293.114 1043.027, 293.205 1043.218, 292.117 1043.907 C 291.100 1044.551, 291.565 1044.965, 293.876 1045.473 C 295.604 1045.852, 296.818 1046.485, 296.575 1046.879 C 296.331 1047.273, 296.584 1048.249, 297.137 1049.048 C 297.859 1050.092, 297.986 1049.517, 297.587 1047 C 295.922 1036.510, 295.840 1012.010, 297.429 1000 C 300.977 973.182, 307.580 954.289, 321.801 930.263 C 339.437 900.469, 355.089 883.808, 400 847.022 C 439.234 814.885, 451.193 802.058, 462.377 780.116 C 472.708 759.848, 476.341 742.102, 474.225 722.242 C 473.221 712.815, 470.010 697.676, 468.747 696.413 C 468.502 696.169, 468.016 699.999, 467.666 704.925 M 486.462 759.750 C 483.374 778.171, 475.233 795.302, 460.882 813.580 C 457.176 818.299, 444.992 831.462, 433.807 842.830 C 401.948 875.211, 391.567 888.063, 382.783 906 C 369.557 933.008, 367.371 963.895, 376.612 993.171 C 379.330 1001.782, 387.976 1022.358, 388.610 1021.724 C 388.807 1021.526, 388.258 1018.020, 387.390 1013.932 C 385.241 1003.813, 385.982 983.562, 388.906 972.500 C 393.406 955.476, 403.268 939.969, 414.151 932.805 C 427.576 923.968, 438.542 922.778, 464.292 927.365 C 484.217 930.914, 484.131 930.921, 488.597 925.577 C 502.467 908.985, 513.930 884.345, 518.692 860.890 C 520.780 850.605, 521.057 823.455, 519.164 814.500 C 515.992 799.486, 508.710 782.038, 501.217 771.500 C 496.612 765.022, 488.834 756, 487.855 756 C 487.434 756, 486.808 757.688, 486.462 759.750 M 1765.375 912.125 C 1765.719 913.844, 1766 920.819, 1766 927.625 L 1766 940 1781.500 940 L 1797 940 1797 924.500 L 1797 909 1780.875 909 L 1764.750 909 1765.375 912.125 M 823.387 963.945 C 806.820 966.546, 793.083 976.203, 787.744 989 C 786.292 992.480, 786.280 992.444, 785.594 982.500 C 785.215 977, 784.813 971.375, 784.702 970 L 784.500 967.500 769.750 967.223 L 755 966.947 755 1039.499 L 755 1112.051 770.546 1111.775 L 786.093 1111.500 786.044 1072.500 C 785.986 1026.039, 786.644 1018.310, 791.502 1008.374 C 795.243 1000.724, 798.771 997.342, 806.767 993.741 C 813.594 990.666, 827.460 990.732, 834.599 993.873 C 840.920 996.654, 847.180 1002.923, 850.202 1009.500 C 852.485 1014.468, 852.502 1014.814, 852.794 1063.250 L 853.089 1112 868.544 1112 L 884 1112 884.035 1069.750 C 884.073 1023.253, 884.721 1015.958, 889.606 1006.983 C 892.745 1001.215, 897.540 997.006, 904.670 993.759 C 911.694 990.560, 925.388 990.642, 932.779 993.926 C 939.203 996.780, 946.128 1004.157, 948.577 1010.756 C 950.348 1015.529, 950.477 1019.209, 951.889 1105.250 L 952 1112 967.064 1112 L 982.127 1112 981.738 1059.250 C 981.309 1001.141, 981.298 1001.039, 974.761 988.726 C 961.729 964.180, 928.052 955.781, 900.708 970.257 C 894.086 973.763, 885.283 982.745, 882.339 989.001 L 880.336 993.257 877.285 987.878 C 870.750 976.358, 861.967 969.383, 849.321 965.670 C 842.771 963.747, 830.041 962.901, 823.387 963.945 M 1649.472 963.987 C 1622.503 967.758, 1606.878 979, 1600.486 999.234 C 1599.119 1003.562, 1598 1007.305, 1598 1007.552 C 1598 1007.798, 1604.638 1007.982, 1612.750 1007.959 L 1627.500 1007.918 1629.876 1002.857 C 1634.345 993.336, 1645.693 988.493, 1661.887 989.195 C 1680.856 990.018, 1690.226 997.835, 1690.418 1013 L 1690.500 1019.500 1685.500 1021.153 C 1682.750 1022.063, 1673.366 1023.543, 1664.646 1024.444 C 1622.425 1028.804, 1604.276 1036.537, 1595.787 1053.782 C 1592.624 1060.207, 1592.500 1060.910, 1592.500 1072.479 C 1592.500 1083.437, 1592.738 1085.007, 1595.188 1090.236 C 1602.595 1106.039, 1620.348 1115.291, 1643 1115.153 C 1654.693 1115.081, 1662.148 1113.483, 1671.847 1108.969 C 1678.962 1105.657, 1688.706 1096.502, 1691.056 1090.921 L 1692.497 1087.500 1693.161 1092.500 C 1693.526 1095.250, 1693.864 1100.775, 1693.912 1104.777 L 1694 1112.055 1708.250 1111.777 L 1722.500 1111.500 1722.113 1059 C 1721.814 1018.458, 1721.409 1005.247, 1720.333 1001 C 1715.673 982.608, 1702.789 970.942, 1681.716 966.032 C 1671.832 963.730, 1657.718 962.835, 1649.472 963.987 M 1231.631 966.078 C 1210.827 971.189, 1199.312 981.758, 1195.955 998.824 C 1193.510 1011.249, 1196.476 1023.077, 1204.135 1031.458 C 1212.795 1040.932, 1221.949 1044.816, 1249.038 1050.508 C 1270.478 1055.013, 1275.836 1056.969, 1280.315 1061.927 C 1286.016 1068.237, 1285.974 1076.944, 1280.212 1083.321 C 1275.251 1088.813, 1260.547 1092.702, 1249.500 1091.446 C 1236.524 1089.971, 1227.402 1084.574, 1222.294 1075.350 L 1219.086 1069.556 1204.928 1069.432 L 1190.770 1069.309 1191.397 1073.904 C 1192.409 1081.328, 1198.252 1092.382, 1204.428 1098.559 C 1211.119 1105.250, 1223.034 1111.209, 1234.208 1113.452 C 1244.219 1115.462, 1263.803 1115.460, 1273.792 1113.447 C 1300.376 1108.089, 1315.948 1090.898, 1314.825 1068.146 C 1314.130 1054.066, 1306.675 1043.403, 1292.702 1036.507 C 1286.032 1033.216, 1270.409 1028.848, 1249.672 1024.478 C 1239.496 1022.334, 1230.230 1017.557, 1227.638 1013.120 C 1222.918 1005.038, 1226.316 995.957, 1235.802 991.298 C 1241.005 988.743, 1242.455 988.502, 1252.500 988.521 C 1261.852 988.539, 1264.283 988.893, 1268.727 990.884 C 1274.452 993.450, 1281.563 1000.411, 1282.575 1004.441 L 1283.217 1007 1298.108 1007 C 1306.299 1007, 1313 1006.857, 1313 1006.682 C 1313 1006.506, 1312.282 1003.919, 1311.405 1000.932 C 1306 982.532, 1293.098 970.870, 1272.747 965.991 C 1261.602 963.319, 1242.698 963.359, 1231.631 966.078 M 1393.720 966.004 C 1381.557 969.076, 1371.895 974.311, 1363.142 982.571 C 1346.880 997.917, 1340.089 1017.237, 1341.292 1044.727 C 1341.936 1059.437, 1343.525 1066.128, 1349.197 1078 C 1357.215 1094.783, 1374.068 1107.826, 1394.500 1113.061 C 1405.654 1115.919, 1424.363 1115.917, 1435.500 1113.056 C 1454.646 1108.139, 1468.757 1097.229, 1476.827 1081.105 C 1479.122 1076.520, 1481 1072.146, 1481 1071.384 C 1481 1070.267, 1478.130 1070, 1466.145 1070 L 1451.290 1070 1448.395 1074.583 C 1441.890 1084.880, 1427.920 1090.634, 1411.509 1089.776 C 1403.055 1089.334, 1401.080 1088.849, 1394.525 1085.610 C 1386.018 1081.405, 1381.298 1076.519, 1377.033 1067.500 C 1374.090 1061.277, 1371.351 1050.316, 1372.461 1049.206 C 1372.810 1048.856, 1383.987 1048.657, 1397.298 1048.763 C 1410.609 1048.869, 1435.625 1048.688, 1452.890 1048.360 L 1484.279 1047.763 1483.587 1035.301 C 1481.974 1006.283, 1472.852 987.403, 1454.518 975.140 C 1442.724 967.252, 1433.792 964.752, 1416 964.359 C 1404.131 964.097, 1400.088 964.396, 1393.720 966.004 M 637 971.115 C 633.425 974.455, 630.388 977.146, 630.250 977.094 C 630.112 977.042, 630 977.225, 630 977.500 C 630 977.775, 630.337 978.032, 630.750 978.071 C 631.163 978.110, 632.212 978.786, 633.081 979.573 C 633.951 980.360, 634.963 980.703, 635.331 980.336 C 635.699 979.968, 636 980.417, 636 981.333 C 636 982.250, 636.436 983, 636.969 983 C 637.501 983, 637.650 982.251, 637.299 981.336 C 636.902 980.302, 637.059 979.918, 637.713 980.323 C 638.337 980.709, 639.603 978.638, 640.822 975.237 C 643.223 968.540, 644.263 964.991, 643.817 965.021 C 643.643 965.033, 640.575 967.775, 637 971.115 M 1022.265 1018.250 C 1022.722 1075.376, 1022.800 1076.118, 1029.719 1089.285 C 1036.119 1101.463, 1046.893 1109.870, 1060.644 1113.416 C 1068.382 1115.411, 1085.604 1115.481, 1092.869 1113.547 C 1104.927 1110.338, 1115.761 1102.731, 1122.476 1092.759 L 1125.771 1087.867 1126.496 1099.933 L 1127.221 1112 1141.611 1112 L 1156 1112 1156 1039.500 L 1156 967 1140.500 967 L 1125 967 1124.992 1008.750 C 1124.988 1032.926, 1124.545 1053.236, 1123.940 1057 C 1121.175 1074.200, 1111.283 1084.876, 1095.176 1088.045 C 1078.503 1091.325, 1062.996 1084.346, 1057.064 1070.892 C 1053.637 1063.121, 1053.040 1054.095, 1053.020 1009.750 L 1053 967 1037.428 967 L 1021.856 967 1022.265 1018.250 M 1766 1039.526 L 1766 1112.052 1781.250 1111.776 L 1796.500 1111.500 1796.757 1039.250 L 1797.013 967 1781.507 967 L 1766 967 1766 1039.526 M 1402.746 990.086 C 1388.746 993.385, 1377.736 1005.152, 1373.627 1021.206 L 1372.271 1026.500 1412.291 1026.761 C 1434.302 1026.905, 1452.553 1026.780, 1452.850 1026.484 C 1453.986 1025.348, 1450.694 1013.239, 1447.737 1007.674 C 1444.618 1001.805, 1439.043 996.161, 1433.500 993.259 C 1426.037 989.352, 1412.004 987.904, 1402.746 990.086 M 644.685 1000.155 C 641.854 1007.567, 633.140 1019.860, 624.817 1028.183 C 614.736 1038.264, 603.998 1046.189, 588.716 1054.826 C 566.580 1067.338, 554.766 1072.259, 505.500 1089.493 C 452.718 1107.957, 435.593 1115.491, 414.256 1129.633 C 379.568 1152.626, 360.537 1183.377, 358.332 1220 C 357.718 1230.200, 359.073 1244.214, 361.766 1255.500 L 363.436 1262.500 364.089 1254 C 364.994 1242.218, 366.612 1234.268, 370.160 1224.157 C 380.156 1195.671, 396.520 1175.172, 423.904 1156.833 C 442.894 1144.116, 457.284 1137.788, 505.823 1120.812 C 539.053 1109.190, 560.435 1100.590, 573 1093.792 C 613.790 1071.723, 635.937 1044.820, 645.132 1006.170 C 647.407 996.603, 647.185 993.609, 644.685 1000.155 M 488.500 1028.586 C 471.384 1031.596, 452.589 1039.440, 436.288 1050.376 C 428.359 1055.696, 418 1064.668, 418 1066.215 C 418 1066.796, 421.488 1071.069, 425.750 1075.710 C 430.012 1080.352, 435.340 1086.225, 437.590 1088.762 L 441.680 1093.375 450.296 1089.673 C 460.853 1085.138, 474.381 1080.230, 505 1069.827 C 528.291 1061.913, 549.127 1054.008, 562.370 1048.061 L 569.239 1044.976 566.671 1042.956 C 562.834 1039.938, 549.258 1033.402, 543 1031.561 C 527.729 1027.068, 504.382 1025.794, 488.500 1028.586 M 1686.843 1041.563 C 1684.831 1042.260, 1675.831 1043.800, 1666.843 1044.985 C 1642.939 1048.135, 1637.201 1049.599, 1630.727 1054.199 C 1623.959 1059.007, 1621.616 1071.986, 1626.082 1079.932 C 1630.384 1087.586, 1637.890 1091, 1650.416 1091 C 1670.372 1091, 1684.433 1082.261, 1689.077 1066.971 C 1690.628 1061.865, 1691.010 1058.152, 1690.787 1050.345 L 1690.500 1040.294 1686.843 1041.563 M 1532.500 1076.222 C 1523.826 1079.297, 1519.534 1086.340, 1520.177 1096.444 C 1520.490 1101.353, 1521.219 1103.709, 1523.402 1106.859 C 1530.712 1117.406, 1547.772 1117.720, 1555.605 1107.452 C 1558.037 1104.263, 1558.534 1102.565, 1558.847 1096.365 C 1559.173 1089.911, 1558.910 1088.521, 1556.623 1084.619 C 1552.112 1076.923, 1541.219 1073.130, 1532.500 1076.222" stroke="none" fill="#fbfbfb" fill-rule="evenodd"/></svg>